<?xml version="1.0" encoding="UTF-8" standalone="no"?><svg xmlns="http://www.w3.org/2000/svg" xmlns:xlink="http://www.w3.org/1999/xlink" contentStyleType="text/css" height="258px" preserveAspectRatio="none" style="width:578px;height:258px;background:#FFFFFF;" version="1.1" viewBox="0 0 578 258" width="578px" zoomAndPan="magnify"><defs/><g><line style="stroke:#181818;stroke-width:0.5;stroke-dasharray:5.0,5.0;" x1="66" x2="66" y1="37.6094" y2="222.3672"/><line style="stroke:#181818;stroke-width:0.5;stroke-dasharray:5.0,5.0;" x1="286.5" x2="286.5" y1="37.6094" y2="222.3672"/><line style="stroke:#181818;stroke-width:0.5;stroke-dasharray:5.0,5.0;" x1="529" x2="529" y1="37.6094" y2="222.3672"/><rect fill="#E2E2F0" height="31.6094" rx="2.5" ry="2.5" style="stroke:#181818;stroke-width:0.5;" width="122" x="5" y="5"/><text fill="#000000" font-family="sans-serif" font-size="14" lengthAdjust="spacing" textLength="108" x="12" y="26.5332">HealthMonitorAPI</text><rect fill="#E2E2F0" height="31.6094" rx="2.5" ry="2.5" style="stroke:#181818;stroke-width:0.5;" width="122" x="5" y="221.3672"/><text fill="#000000" font-family="sans-serif" font-size="14" lengthAdjust="spacing" textLength="108" x="12" y="242.9004">HealthMonitorAPI</text><rect fill="#E2E2F0" height="31.6094" rx="2.5" ry="2.5" style="stroke:#181818;stroke-width:0.5;" width="97" x="238.5" y="5"/><text fill="#000000" font-family="sans-serif" font-size="14" lengthAdjust="spacing" textLength="83" x="245.5" y="26.5332">DiscoveryAPI</text><rect fill="#E2E2F0" height="31.6094" rx="2.5" ry="2.5" style="stroke:#181818;stroke-width:0.5;" width="97" x="238.5" y="221.3672"/><text fill="#000000" font-family="sans-serif" font-size="14" lengthAdjust="spacing" textLength="83" x="245.5" y="242.9004">DiscoveryAPI</text><rect fill="#E2E2F0" height="31.6094" rx="2.5" ry="2.5" style="stroke:#181818;stroke-width:0.5;" width="86" x="486" y="5"/><text fill="#000000" font-family="sans-serif" font-size="14" lengthAdjust="spacing" textLength="72" x="493" y="26.5332">ExternalAPI</text><rect fill="#E2E2F0" height="31.6094" rx="2.5" ry="2.5" style="stroke:#181818;stroke-width:0.5;" width="86" x="486" y="221.3672"/><text fill="#000000" font-family="sans-serif" font-size="14" lengthAdjust="spacing" textLength="72" x="493" y="242.9004">ExternalAPI</text><polygon fill="#181818" points="298,65.9609,288,69.9609,298,73.9609,294,69.9609" style="stroke:#181818;stroke-width:1.0;"/><line style="stroke:#181818;stroke-width:1.0;" x1="292" x2="528" y1="69.9609" y2="69.9609"/><text fill="#000000" font-family="sans-serif" font-size="13" lengthAdjust="spacing" textLength="51" x="304" y="65.1045">register()</text><line style="stroke:#181818;stroke-width:1.0;" x1="287" x2="329" y1="100.3125" y2="100.3125"/><line style="stroke:#181818;stroke-width:1.0;" x1="329" x2="329" y1="100.3125" y2="113.3125"/><line style="stroke:#181818;stroke-width:1.0;" x1="288" x2="329" y1="113.3125" y2="113.3125"/><polygon fill="#181818" points="298,109.3125,288,113.3125,298,117.3125,294,113.3125" style="stroke:#181818;stroke-width:1.0;"/><text fill="#000000" font-family="sans-serif" font-size="13" lengthAdjust="spacing" textLength="228" x="294" y="95.4561">addServiceToDiscovery(ipAdress:string)</text><polygon fill="#181818" points="77,139.6641,67,143.6641,77,147.6641,73,143.6641" style="stroke:#181818;stroke-width:1.0;"/><line style="stroke:#181818;stroke-width:1.0;" x1="71" x2="286" y1="143.6641" y2="143.6641"/><text fill="#000000" font-family="sans-serif" font-size="13" lengthAdjust="spacing" textLength="197" x="83" y="138.8076">informNewService(ipAdress:string)</text><polygon fill="#181818" points="517,170.0156,527,174.0156,517,178.0156,521,174.0156" style="stroke:#181818;stroke-width:1.0;"/><line style="stroke:#181818;stroke-width:1.0;" x1="66" x2="523" y1="174.0156" y2="174.0156"/><text fill="#000000" font-family="sans-serif" font-size="13" lengthAdjust="spacing" textLength="24" x="73" y="169.1592">ping</text><polygon fill="#181818" points="77,200.3672,67,204.3672,77,208.3672,73,204.3672" style="stroke:#181818;stroke-width:1.0;"/><line style="stroke:#181818;stroke-width:1.0;stroke-dasharray:2.0,2.0;" x1="71" x2="528" y1="204.3672" y2="204.3672"/><text fill="#000000" font-family="sans-serif" font-size="13" lengthAdjust="spacing" textLength="28" x="83" y="199.5107">echo</text><!--MD5=[98340e849e225502edfaa08394a708eb]
@startuml
participant HealthMonitorAPI as Health
participant DiscoveryAPI as Disc
participant ExternalAPI as Ext

Ext -> Disc: register()
Disc -> Disc: addServiceToDiscovery(ipAdress:string)
Disc -> Health: informNewService(ipAdress:string)
Health -> Ext: ping
Ext - -> Health: echo
@enduml

PlantUML version 1.2022.7(Mon Aug 22 13:01:30 EDT 2022)
(GPL source distribution)
Java Runtime: Java(TM) SE Runtime Environment
JVM: Java HotSpot(TM) Client VM
Default Encoding: Cp1252
Language: en
Country: CA
--></g></svg>