<?xml version="1.0" encoding="UTF-8" standalone="no"?><svg xmlns="http://www.w3.org/2000/svg" xmlns:xlink="http://www.w3.org/1999/xlink" contentStyleType="text/css" height="442px" preserveAspectRatio="none" style="width:739px;height:442px;background:#FFFFFF;" version="1.1" viewBox="0 0 739 442" width="739px" zoomAndPan="magnify"><defs/><g><rect fill="none" height="122.4063" style="stroke:#000000;stroke-width:1.5;" width="682" x="10" y="99.6094"/><line style="stroke:#181818;stroke-width:0.5;stroke-dasharray:5.0,5.0;" x1="41" x2="41" y1="82.6094" y2="360.4219"/><line style="stroke:#181818;stroke-width:0.5;stroke-dasharray:5.0,5.0;" x1="150" x2="150" y1="82.6094" y2="360.4219"/><line style="stroke:#181818;stroke-width:0.5;stroke-dasharray:5.0,5.0;" x1="374" x2="374" y1="82.6094" y2="360.4219"/><line style="stroke:#181818;stroke-width:0.5;stroke-dasharray:5.0,5.0;" x1="686.5" x2="686.5" y1="82.6094" y2="360.4219"/><text fill="#000000" font-family="sans-serif" font-size="14" lengthAdjust="spacing" textLength="36" x="20" y="79.5332">Client</text><ellipse cx="41" cy="13.5" fill="#E2E2F0" rx="8" ry="8" style="stroke:#181818;stroke-width:0.5;"/><path d="M41,21.5 L41,48.5 M28,29.5 L54,29.5 M41,48.5 L28,63.5 M41,48.5 L54,63.5 " fill="none" style="stroke:#181818;stroke-width:0.5;"/><text fill="#000000" font-family="sans-serif" font-size="14" lengthAdjust="spacing" textLength="36" x="20" y="373.9551">Client</text><ellipse cx="41" cy="385.5313" fill="#E2E2F0" rx="8" ry="8" style="stroke:#181818;stroke-width:0.5;"/><path d="M41,393.5313 L41,420.5313 M28,401.5313 L54,401.5313 M41,420.5313 L28,435.5313 M41,420.5313 L54,435.5313 " fill="none" style="stroke:#181818;stroke-width:0.5;"/><rect fill="#E2E2F0" height="31.6094" rx="2.5" ry="2.5" style="stroke:#181818;stroke-width:0.5;" width="122" x="89" y="50"/><text fill="#000000" font-family="sans-serif" font-size="14" lengthAdjust="spacing" textLength="108" x="96" y="71.5332">HealthMonitorAPI</text><rect fill="#E2E2F0" height="31.6094" rx="2.5" ry="2.5" style="stroke:#181818;stroke-width:0.5;" width="122" x="89" y="359.4219"/><text fill="#000000" font-family="sans-serif" font-size="14" lengthAdjust="spacing" textLength="108" x="96" y="380.9551">HealthMonitorAPI</text><rect fill="#E2E2F0" height="31.6094" rx="2.5" ry="2.5" style="stroke:#181818;stroke-width:0.5;" width="74" x="337" y="50"/><text fill="#000000" font-family="sans-serif" font-size="14" lengthAdjust="spacing" textLength="60" x="344" y="71.5332">IpHandler</text><rect fill="#E2E2F0" height="31.6094" rx="2.5" ry="2.5" style="stroke:#181818;stroke-width:0.5;" width="74" x="337" y="359.4219"/><text fill="#000000" font-family="sans-serif" font-size="14" lengthAdjust="spacing" textLength="60" x="344" y="380.9551">IpHandler</text><rect fill="#E2E2F0" height="31.6094" rx="2.5" ry="2.5" style="stroke:#181818;stroke-width:0.5;" width="93" x="640.5" y="50"/><text fill="#000000" font-family="sans-serif" font-size="14" lengthAdjust="spacing" textLength="79" x="647.5" y="71.5332">DOSHandler</text><rect fill="#E2E2F0" height="31.6094" rx="2.5" ry="2.5" style="stroke:#181818;stroke-width:0.5;" width="93" x="640.5" y="359.4219"/><text fill="#000000" font-family="sans-serif" font-size="14" lengthAdjust="spacing" textLength="79" x="647.5" y="380.9551">DOSHandler</text><path d="M10,99.6094 L83,99.6094 L83,107.9609 L73,117.9609 L10,117.9609 L10,99.6094 " fill="#EEEEEE" style="stroke:#000000;stroke-width:1.5;"/><rect fill="none" height="122.4063" style="stroke:#000000;stroke-width:1.5;" width="682" x="10" y="99.6094"/><text fill="#000000" font-family="sans-serif" font-size="13" font-weight="bold" lengthAdjust="spacing" textLength="28" x="25" y="114.1045">loop</text><text fill="#000000" font-family="sans-serif" font-size="11" font-weight="bold" lengthAdjust="spacing" textLength="109" x="98" y="113.0283">[requestCount = 50]</text><polygon fill="#181818" points="138,136.3125,148,140.3125,138,144.3125,142,140.3125" style="stroke:#181818;stroke-width:1.0;"/><line style="stroke:#181818;stroke-width:1.0;" x1="41" x2="144" y1="140.3125" y2="140.3125"/><text fill="#000000" font-family="sans-serif" font-size="13" lengthAdjust="spacing" textLength="43" x="48" y="135.4561">request</text><polygon fill="#181818" points="362,166.6641,372,170.6641,362,174.6641,366,170.6641" style="stroke:#181818;stroke-width:1.0;"/><line style="stroke:#181818;stroke-width:1.0;" x1="150" x2="368" y1="170.6641" y2="170.6641"/><text fill="#000000" font-family="sans-serif" font-size="13" lengthAdjust="spacing" textLength="200" x="157" y="165.8076">denyServiceCheck(senderIp:string)</text><line style="stroke:#181818;stroke-width:1.0;" x1="374" x2="416" y1="201.0156" y2="201.0156"/><line style="stroke:#181818;stroke-width:1.0;" x1="416" x2="416" y1="201.0156" y2="214.0156"/><line style="stroke:#181818;stroke-width:1.0;" x1="375" x2="416" y1="214.0156" y2="214.0156"/><polygon fill="#181818" points="385,210.0156,375,214.0156,385,218.0156,381,214.0156" style="stroke:#181818;stroke-width:1.0;"/><text fill="#000000" font-family="sans-serif" font-size="13" lengthAdjust="spacing" textLength="299" x="381" y="196.1592">addRequestCount(senderIp:string, requestCount:int)</text><polygon fill="#181818" points="675,247.3672,685,251.3672,675,255.3672,679,251.3672" style="stroke:#181818;stroke-width:1.0;"/><line style="stroke:#181818;stroke-width:1.0;" x1="374" x2="681" y1="251.3672" y2="251.3672"/><text fill="#000000" font-family="sans-serif" font-size="13" lengthAdjust="spacing" textLength="165" x="381" y="246.5107">denyAccess(senderIp:string)</text><polygon fill="#181818" points="385,277.7188,375,281.7188,385,285.7188,381,281.7188" style="stroke:#181818;stroke-width:1.0;"/><line style="stroke:#181818;stroke-width:1.0;stroke-dasharray:2.0,2.0;" x1="379" x2="686" y1="281.7188" y2="281.7188"/><text fill="#000000" font-family="sans-serif" font-size="13" lengthAdjust="spacing" textLength="85" x="391" y="276.8623">deny message</text><polygon fill="#181818" points="161,308.0703,151,312.0703,161,316.0703,157,312.0703" style="stroke:#181818;stroke-width:1.0;"/><line style="stroke:#181818;stroke-width:1.0;stroke-dasharray:2.0,2.0;" x1="155" x2="373" y1="312.0703" y2="312.0703"/><text fill="#000000" font-family="sans-serif" font-size="13" lengthAdjust="spacing" textLength="85" x="167" y="307.2139">deny message</text><polygon fill="#181818" points="52,338.4219,42,342.4219,52,346.4219,48,342.4219" style="stroke:#181818;stroke-width:1.0;"/><line style="stroke:#181818;stroke-width:1.0;stroke-dasharray:2.0,2.0;" x1="46" x2="149" y1="342.4219" y2="342.4219"/><text fill="#000000" font-family="sans-serif" font-size="13" lengthAdjust="spacing" textLength="85" x="58" y="337.5654">deny message</text><!--MD5=[83c497cc5b5e3ed78d8f5f93ad32f4a3]
@startuml
actor Client as Client
participant HealthMonitorAPI as Health
participant IpHandler as IP
participant DOSHandler as DOS

loop requestCount = 50
    Client -> Health: request
    Health -> IP: denyServiceCheck(senderIp:string)
    IP -> IP: addRequestCount(senderIp:string, requestCount:int)
end
IP -> DOS: denyAccess(senderIp:string)
DOS - -> IP: deny message
IP - -> Health: deny message 
Health - -> Client: deny message
@enduml

PlantUML version 1.2022.7(Mon Aug 22 13:01:30 EDT 2022)
(GPL source distribution)
Java Runtime: Java(TM) SE Runtime Environment
JVM: Java HotSpot(TM) Client VM
Default Encoding: Cp1252
Language: en
Country: CA
--></g></svg>