<?xml version="1.0" encoding="UTF-8" standalone="no"?><svg xmlns="http://www.w3.org/2000/svg" xmlns:xlink="http://www.w3.org/1999/xlink" contentStyleType="text/css" height="779px" preserveAspectRatio="none" style="width:397px;height:779px;background:#FFFFFF;" version="1.1" viewBox="0 0 397 779" width="397px" zoomAndPan="magnify"><defs/><g><rect fill="none" height="459.1094" style="stroke:#000000;stroke-width:1.5;" width="380" x="10" y="221.0156"/><line style="stroke:#181818;stroke-width:0.5;stroke-dasharray:5.0,5.0;" x1="41" x2="41" y1="82.6094" y2="697.125"/><line style="stroke:#181818;stroke-width:0.5;stroke-dasharray:5.0,5.0;" x1="133" x2="133" y1="82.6094" y2="697.125"/><line style="stroke:#181818;stroke-width:0.5;stroke-dasharray:5.0,5.0;" x1="274" x2="274" y1="82.6094" y2="697.125"/><line style="stroke:#181818;stroke-width:0.5;stroke-dasharray:5.0,5.0;" x1="348" x2="348" y1="82.6094" y2="697.125"/><text fill="#000000" font-family="sans-serif" font-size="14" lengthAdjust="spacing" textLength="36" x="20" y="79.5332">Client</text><ellipse cx="41" cy="13.5" fill="#E2E2F0" rx="8" ry="8" style="stroke:#181818;stroke-width:0.5;"/><path d="M41,21.5 L41,48.5 M28,29.5 L54,29.5 M41,48.5 L28,63.5 M41,48.5 L54,63.5 " fill="none" style="stroke:#181818;stroke-width:0.5;"/><text fill="#000000" font-family="sans-serif" font-size="14" lengthAdjust="spacing" textLength="36" x="20" y="710.6582">Client</text><ellipse cx="41" cy="722.2344" fill="#E2E2F0" rx="8" ry="8" style="stroke:#181818;stroke-width:0.5;"/><path d="M41,730.2344 L41,757.2344 M28,738.2344 L54,738.2344 M41,757.2344 L28,772.2344 M41,757.2344 L54,772.2344 " fill="none" style="stroke:#181818;stroke-width:0.5;"/><rect fill="#E2E2F0" height="31.6094" rx="2.5" ry="2.5" style="stroke:#181818;stroke-width:0.5;" width="122" x="72" y="50"/><text fill="#000000" font-family="sans-serif" font-size="14" lengthAdjust="spacing" textLength="108" x="79" y="71.5332">HealthMonitorAPI</text><rect fill="#E2E2F0" height="31.6094" rx="2.5" ry="2.5" style="stroke:#181818;stroke-width:0.5;" width="122" x="72" y="696.125"/><text fill="#000000" font-family="sans-serif" font-size="14" lengthAdjust="spacing" textLength="108" x="79" y="717.6582">HealthMonitorAPI</text><rect fill="#E2E2F0" height="31.6094" rx="2.5" ry="2.5" style="stroke:#181818;stroke-width:0.5;" width="64" x="242" y="50"/><text fill="#000000" font-family="sans-serif" font-size="14" lengthAdjust="spacing" textLength="50" x="249" y="71.5332">Server1</text><rect fill="#E2E2F0" height="31.6094" rx="2.5" ry="2.5" style="stroke:#181818;stroke-width:0.5;" width="64" x="242" y="696.125"/><text fill="#000000" font-family="sans-serif" font-size="14" lengthAdjust="spacing" textLength="50" x="249" y="717.6582">Server1</text><rect fill="#E2E2F0" height="31.6094" rx="2.5" ry="2.5" style="stroke:#181818;stroke-width:0.5;" width="64" x="316" y="50"/><text fill="#000000" font-family="sans-serif" font-size="14" lengthAdjust="spacing" textLength="50" x="323" y="71.5332">Server2</text><rect fill="#E2E2F0" height="31.6094" rx="2.5" ry="2.5" style="stroke:#181818;stroke-width:0.5;" width="64" x="316" y="696.125"/><text fill="#000000" font-family="sans-serif" font-size="14" lengthAdjust="spacing" textLength="50" x="323" y="717.6582">Server2</text><polygon fill="#181818" points="262,110.9609,272,114.9609,262,118.9609,266,114.9609" style="stroke:#181818;stroke-width:1.0;"/><line style="stroke:#181818;stroke-width:1.0;" x1="133" x2="268" y1="114.9609" y2="114.9609"/><text fill="#000000" font-family="sans-serif" font-size="13" lengthAdjust="spacing" textLength="106" x="140" y="110.1045">loadServerStatus()</text><polygon fill="#181818" points="144,141.3125,134,145.3125,144,149.3125,140,145.3125" style="stroke:#181818;stroke-width:1.0;"/><line style="stroke:#181818;stroke-width:1.0;stroke-dasharray:2.0,2.0;" x1="138" x2="273" y1="145.3125" y2="145.3125"/><text fill="#000000" font-family="sans-serif" font-size="13" lengthAdjust="spacing" textLength="74" x="150" y="140.4561">server status</text><polygon fill="#181818" points="336,171.6641,346,175.6641,336,179.6641,340,175.6641" style="stroke:#181818;stroke-width:1.0;"/><line style="stroke:#181818;stroke-width:1.0;" x1="133" x2="342" y1="175.6641" y2="175.6641"/><text fill="#000000" font-family="sans-serif" font-size="13" lengthAdjust="spacing" textLength="106" x="140" y="170.8076">loadServerStatus()</text><polygon fill="#181818" points="144,202.0156,134,206.0156,144,210.0156,140,206.0156" style="stroke:#181818;stroke-width:1.0;"/><line style="stroke:#181818;stroke-width:1.0;stroke-dasharray:2.0,2.0;" x1="138" x2="347" y1="206.0156" y2="206.0156"/><text fill="#000000" font-family="sans-serif" font-size="13" lengthAdjust="spacing" textLength="74" x="150" y="201.1592">server status</text><path d="M10,221.0156 L71,221.0156 L71,229.3672 L61,239.3672 L10,239.3672 L10,221.0156 " fill="#EEEEEE" style="stroke:#000000;stroke-width:1.5;"/><rect fill="none" height="459.1094" style="stroke:#000000;stroke-width:1.5;" width="380" x="10" y="221.0156"/><text fill="#000000" font-family="sans-serif" font-size="13" font-weight="bold" lengthAdjust="spacing" textLength="16" x="25" y="235.5107">alt</text><text fill="#000000" font-family="sans-serif" font-size="11" font-weight="bold" lengthAdjust="spacing" textLength="71" x="86" y="234.4346">[S1 available]</text><polygon fill="#181818" points="121,257.7188,131,261.7188,121,265.7188,125,261.7188" style="stroke:#181818;stroke-width:1.0;"/><line style="stroke:#181818;stroke-width:1.0;" x1="41" x2="127" y1="261.7188" y2="261.7188"/><text fill="#000000" font-family="sans-serif" font-size="13" lengthAdjust="spacing" textLength="54" x="48" y="256.8623">request 1</text><polygon fill="#181818" points="262,288.0703,272,292.0703,262,296.0703,266,292.0703" style="stroke:#181818;stroke-width:1.0;"/><line style="stroke:#181818;stroke-width:1.0;" x1="133" x2="268" y1="292.0703" y2="292.0703"/><text fill="#000000" font-family="sans-serif" font-size="13" lengthAdjust="spacing" textLength="117" x="140" y="287.2139">checkServerStatus()</text><polygon fill="#181818" points="144,318.4219,134,322.4219,144,326.4219,140,322.4219" style="stroke:#181818;stroke-width:1.0;"/><line style="stroke:#181818;stroke-width:1.0;stroke-dasharray:2.0,2.0;" x1="138" x2="273" y1="322.4219" y2="322.4219"/><text fill="#000000" font-family="sans-serif" font-size="13" lengthAdjust="spacing" textLength="49" x="150" y="317.5654">available</text><polygon fill="#181818" points="262,348.7734,272,352.7734,262,356.7734,266,352.7734" style="stroke:#181818;stroke-width:1.0;"/><line style="stroke:#181818;stroke-width:1.0;" x1="133" x2="268" y1="352.7734" y2="352.7734"/><text fill="#000000" font-family="sans-serif" font-size="13" lengthAdjust="spacing" textLength="54" x="140" y="347.917">request 1</text><polygon fill="#181818" points="144,379.125,134,383.125,144,387.125,140,383.125" style="stroke:#181818;stroke-width:1.0;"/><line style="stroke:#181818;stroke-width:1.0;stroke-dasharray:2.0,2.0;" x1="138" x2="273" y1="383.125" y2="383.125"/><text fill="#000000" font-family="sans-serif" font-size="13" lengthAdjust="spacing" textLength="64" x="150" y="378.2686">response 1</text><polygon fill="#181818" points="52,409.4766,42,413.4766,52,417.4766,48,413.4766" style="stroke:#181818;stroke-width:1.0;"/><line style="stroke:#181818;stroke-width:1.0;stroke-dasharray:2.0,2.0;" x1="46" x2="132" y1="413.4766" y2="413.4766"/><text fill="#000000" font-family="sans-serif" font-size="13" lengthAdjust="spacing" textLength="64" x="58" y="408.6201">response 1</text><line style="stroke:#000000;stroke-width:1.0;stroke-dasharray:2.0,2.0;" x1="10" x2="390" y1="422.4766" y2="422.4766"/><text fill="#000000" font-family="sans-serif" font-size="11" font-weight="bold" lengthAdjust="spacing" textLength="85" x="15" y="433.8955">[S1 unavailable]</text><polygon fill="#181818" points="121,455.6641,131,459.6641,121,463.6641,125,459.6641" style="stroke:#181818;stroke-width:1.0;"/><line style="stroke:#181818;stroke-width:1.0;" x1="41" x2="127" y1="459.6641" y2="459.6641"/><text fill="#000000" font-family="sans-serif" font-size="13" lengthAdjust="spacing" textLength="61" x="48" y="454.8076">resquest 2</text><polygon fill="#181818" points="262,486.0156,272,490.0156,262,494.0156,266,490.0156" style="stroke:#181818;stroke-width:1.0;"/><line style="stroke:#181818;stroke-width:1.0;" x1="133" x2="268" y1="490.0156" y2="490.0156"/><text fill="#000000" font-family="sans-serif" font-size="13" lengthAdjust="spacing" textLength="117" x="140" y="485.1592">checkServerStatus()</text><polygon fill="#181818" points="144,516.3672,134,520.3672,144,524.3672,140,520.3672" style="stroke:#181818;stroke-width:1.0;"/><line style="stroke:#181818;stroke-width:1.0;stroke-dasharray:2.0,2.0;" x1="138" x2="273" y1="520.3672" y2="520.3672"/><text fill="#000000" font-family="sans-serif" font-size="13" lengthAdjust="spacing" textLength="63" x="150" y="515.5107">unavailable</text><polygon fill="#181818" points="336,546.7188,346,550.7188,336,554.7188,340,550.7188" style="stroke:#181818;stroke-width:1.0;"/><line style="stroke:#181818;stroke-width:1.0;" x1="133" x2="342" y1="550.7188" y2="550.7188"/><text fill="#000000" font-family="sans-serif" font-size="13" lengthAdjust="spacing" textLength="117" x="140" y="545.8623">checkServerStatus()</text><polygon fill="#181818" points="144,577.0703,134,581.0703,144,585.0703,140,581.0703" style="stroke:#181818;stroke-width:1.0;"/><line style="stroke:#181818;stroke-width:1.0;stroke-dasharray:2.0,2.0;" x1="138" x2="347" y1="581.0703" y2="581.0703"/><text fill="#000000" font-family="sans-serif" font-size="13" lengthAdjust="spacing" textLength="49" x="150" y="576.2139">available</text><polygon fill="#181818" points="336,607.4219,346,611.4219,336,615.4219,340,611.4219" style="stroke:#181818;stroke-width:1.0;"/><line style="stroke:#181818;stroke-width:1.0;" x1="133" x2="342" y1="611.4219" y2="611.4219"/><text fill="#000000" font-family="sans-serif" font-size="13" lengthAdjust="spacing" textLength="54" x="140" y="606.5654">request 2</text><polygon fill="#181818" points="144,637.7734,134,641.7734,144,645.7734,140,641.7734" style="stroke:#181818;stroke-width:1.0;"/><line style="stroke:#181818;stroke-width:1.0;stroke-dasharray:2.0,2.0;" x1="138" x2="347" y1="641.7734" y2="641.7734"/><text fill="#000000" font-family="sans-serif" font-size="13" lengthAdjust="spacing" textLength="64" x="150" y="636.917">response 2</text><polygon fill="#181818" points="52,668.125,42,672.125,52,676.125,48,672.125" style="stroke:#181818;stroke-width:1.0;"/><line style="stroke:#181818;stroke-width:1.0;stroke-dasharray:2.0,2.0;" x1="46" x2="132" y1="672.125" y2="672.125"/><text fill="#000000" font-family="sans-serif" font-size="13" lengthAdjust="spacing" textLength="64" x="58" y="667.2686">response 2</text><!--MD5=[98304262c54038c6d46eee55d79bad9c]
@startuml
actor Client as Client
participant HealthMonitorAPI as Health
participant Server1 as S1
participant Server2 as S2

Health -> S1: loadServerStatus()
S1 - -> Health: server status
Health -> S2: loadServerStatus()
S2 - -> Health: server status

alt S1 available
    Client -> Health: request 1
    Health -> S1: checkServerStatus()
    S1 - -> Health: available
    Health -> S1: request 1
    S1 - -> Health: response 1
    Health - -> Client: response 1

else S1 unavailable
    Client -> Health: resquest 2
    Health -> S1: checkServerStatus()
    S1 - -> Health: unavailable
    Health -> S2: checkServerStatus()
    S2 - -> Health: available
    Health -> S2: request 2
    S2 - -> Health: response 2
    Health - -> Client: response 2
    end
@enduml

PlantUML version 1.2022.7(Mon Aug 22 13:01:30 EDT 2022)
(GPL source distribution)
Java Runtime: Java(TM) SE Runtime Environment
JVM: Java HotSpot(TM) Client VM
Default Encoding: Cp1252
Language: en
Country: CA
--></g></svg>