<?xml version="1.0" encoding="UTF-8" standalone="no"?><svg xmlns="http://www.w3.org/2000/svg" xmlns:xlink="http://www.w3.org/1999/xlink" contentStyleType="text/css" height="289px" preserveAspectRatio="none" style="width:622px;height:289px;background:#FFFFFF;" version="1.1" viewBox="0 0 622 289" width="622px" zoomAndPan="magnify"><defs/><g><line style="stroke:#181818;stroke-width:0.5;stroke-dasharray:5.0,5.0;" x1="66" x2="66" y1="37.6094" y2="252.7188"/><line style="stroke:#181818;stroke-width:0.5;stroke-dasharray:5.0,5.0;" x1="330.5" x2="330.5" y1="37.6094" y2="252.7188"/><line style="stroke:#181818;stroke-width:0.5;stroke-dasharray:5.0,5.0;" x1="573" x2="573" y1="37.6094" y2="252.7188"/><rect fill="#E2E2F0" height="31.6094" rx="2.5" ry="2.5" style="stroke:#181818;stroke-width:0.5;" width="122" x="5" y="5"/><text fill="#000000" font-family="sans-serif" font-size="14" lengthAdjust="spacing" textLength="108" x="12" y="26.5332">HealthMonitorAPI</text><rect fill="#E2E2F0" height="31.6094" rx="2.5" ry="2.5" style="stroke:#181818;stroke-width:0.5;" width="122" x="5" y="251.7188"/><text fill="#000000" font-family="sans-serif" font-size="14" lengthAdjust="spacing" textLength="108" x="12" y="273.252">HealthMonitorAPI</text><rect fill="#E2E2F0" height="31.6094" rx="2.5" ry="2.5" style="stroke:#181818;stroke-width:0.5;" width="97" x="282.5" y="5"/><text fill="#000000" font-family="sans-serif" font-size="14" lengthAdjust="spacing" textLength="83" x="289.5" y="26.5332">DiscoveryAPI</text><rect fill="#E2E2F0" height="31.6094" rx="2.5" ry="2.5" style="stroke:#181818;stroke-width:0.5;" width="97" x="282.5" y="251.7188"/><text fill="#000000" font-family="sans-serif" font-size="14" lengthAdjust="spacing" textLength="83" x="289.5" y="273.252">DiscoveryAPI</text><rect fill="#E2E2F0" height="31.6094" rx="2.5" ry="2.5" style="stroke:#181818;stroke-width:0.5;" width="86" x="530" y="5"/><text fill="#000000" font-family="sans-serif" font-size="14" lengthAdjust="spacing" textLength="72" x="537" y="26.5332">ExternalAPI</text><rect fill="#E2E2F0" height="31.6094" rx="2.5" ry="2.5" style="stroke:#181818;stroke-width:0.5;" width="86" x="530" y="251.7188"/><text fill="#000000" font-family="sans-serif" font-size="14" lengthAdjust="spacing" textLength="72" x="537" y="273.252">ExternalAPI</text><polygon fill="#181818" points="319,65.9609,329,69.9609,319,73.9609,323,69.9609" style="stroke:#181818;stroke-width:1.0;"/><line style="stroke:#181818;stroke-width:1.0;" x1="66" x2="325" y1="69.9609" y2="69.9609"/><text fill="#000000" font-family="sans-serif" font-size="13" lengthAdjust="spacing" textLength="64" x="73" y="65.1045">subscribe()</text><polygon fill="#181818" points="342,96.3125,332,100.3125,342,104.3125,338,100.3125" style="stroke:#181818;stroke-width:1.0;"/><line style="stroke:#181818;stroke-width:1.0;" x1="336" x2="572" y1="100.3125" y2="100.3125"/><text fill="#000000" font-family="sans-serif" font-size="13" lengthAdjust="spacing" textLength="64" x="348" y="95.4561">subscribe()</text><line style="stroke:#181818;stroke-width:1.0;" x1="331" x2="373" y1="130.6641" y2="130.6641"/><line style="stroke:#181818;stroke-width:1.0;" x1="373" x2="373" y1="130.6641" y2="143.6641"/><line style="stroke:#181818;stroke-width:1.0;" x1="332" x2="373" y1="143.6641" y2="143.6641"/><polygon fill="#181818" points="342,139.6641,332,143.6641,342,147.6641,338,143.6641" style="stroke:#181818;stroke-width:1.0;"/><text fill="#000000" font-family="sans-serif" font-size="13" lengthAdjust="spacing" textLength="228" x="338" y="125.8076">addServiceToDiscovery(ipAdress:string)</text><polygon fill="#181818" points="77,170.0156,67,174.0156,77,178.0156,73,174.0156" style="stroke:#181818;stroke-width:1.0;"/><line style="stroke:#181818;stroke-width:1.0;" x1="71" x2="330" y1="174.0156" y2="174.0156"/><text fill="#000000" font-family="sans-serif" font-size="13" lengthAdjust="spacing" textLength="241" x="83" y="169.1592">publishServiceInformation(ipAdress:string)</text><polygon fill="#181818" points="561,200.3672,571,204.3672,561,208.3672,565,204.3672" style="stroke:#181818;stroke-width:1.0;"/><line style="stroke:#181818;stroke-width:1.0;" x1="66" x2="567" y1="204.3672" y2="204.3672"/><text fill="#000000" font-family="sans-serif" font-size="13" lengthAdjust="spacing" textLength="167" x="73" y="199.5107">checkHealth(ipAdress:string)</text><polygon fill="#181818" points="77,230.7188,67,234.7188,77,238.7188,73,234.7188" style="stroke:#181818;stroke-width:1.0;"/><line style="stroke:#181818;stroke-width:1.0;stroke-dasharray:2.0,2.0;" x1="71" x2="572" y1="234.7188" y2="234.7188"/><text fill="#000000" font-family="sans-serif" font-size="13" lengthAdjust="spacing" textLength="36" x="83" y="229.8623">status</text><!--MD5=[2055270353d43525f94df0bb16783506]
@startuml
participant HealthMonitorAPI as Health
participant DiscoveryAPI as Disc
participant ExternalAPI as Ext

Health -> Disc: subscribe()
Ext -> Disc: subscribe()
Disc -> Disc: addServiceToDiscovery(ipAdress:string)
Disc -> Health: publishServiceInformation(ipAdress:string)
Health -> Ext: checkHealth(ipAdress:string)
Ext - -> Health: status
@enduml

PlantUML version 1.2022.7(Mon Aug 22 13:01:30 EDT 2022)
(GPL source distribution)
Java Runtime: Java(TM) SE Runtime Environment
JVM: Java HotSpot(TM) Client VM
Default Encoding: Cp1252
Language: en
Country: CA
--></g></svg>